<svg xmlns="http://www.w3.org/2000/svg" version="1.1" xmlns:xlink="http://www.w3.org/1999/xlink" width="512" height="512" x="0" y="0" viewBox="0 0 100 100" style="enable-background:new 0 0 512 512" xml:space="preserve" class=""><g><path fill-rule="evenodd" d="M95.338 2.5c-1.432 0-4.068.274-7.915.811-3.847.54-6.334 1.061-7.455 1.556-1.125.493-3.158 2.208-6.093 5.122-2.938 2.926-7.2 8.324-12.773 16.192-5.581 7.877-10.786 16.19-15.625 24.95a352.65 352.65 0 0 0-13.551 27.29c-3.88-6.642-7.385-11.145-10.535-13.513-3.14-2.378-5.79-3.564-7.945-3.564-1.683 0-3.79.897-6.333 2.684-2.54 1.79-3.81 3.544-3.81 5.274 0 1.251 1.165 3.106 3.496 5.559 4.616 4.877 8.702 10.05 12.238 15.524 2.16 3.274 3.597 5.284 4.313 6.017.712.725 2.882 1.098 6.51 1.098 5.048 0 8.047-.647 9-1.95.945-1.253 2.695-4.99 5.245-11.22 6.303-15.598 14.14-30.494 23.507-44.676 9.375-14.175 17.962-24.9 25.78-32.165 1.557-1.38 2.492-2.275 2.821-2.688.32-.415.484-.832.484-1.266 0-.686-.454-1.035-1.359-1.035z" clip-rule="evenodd" fill="#008000" opacity="1" data-original="#000000" class=""></path></g></svg>